<svg version="1.1" id="Capa_1" xmlns="http://www.w3.org/2000/svg" xmlns:xlink="http://www.w3.org/1999/xlink" x="0px" y="0px"
	 viewBox="0 0 512 512" fill="#fff" xml:space="preserve">
<g>
	<g>
		<path d="M496,208h-16v-16c0-8.837-7.163-16-16-16h-16v-16c0-17.673-14.327-32-32-32H32c-17.673,0-32,14.327-32,32v192
			c0,17.673,14.327,32,32,32h384c17.673,0,32-14.327,32-32v-16h16c8.837,0,16-7.163,16-16v-16h16c8.837,0,16-7.163,16-16v-64
			C512,215.163,504.837,208,496,208z M416,192v160H192V160h224V192z"/>
	</g>
</g>
</svg>
